/* XPM */
static char *_5346_4798330297a7a87370e41c5d5a4850c936d2c54713a0db84e56d3a2db031c067[] = {
/* columns rows colors chars-per-pixel */
"24 24 184 2 ",
"   c #3B687B",
".  c #4B6F7D",
"X  c #06558E",
"o  c #18639C",
"O  c #2D668E",
"+  c #326E8A",
"@  c #387288",
"#  c #256A93",
"$  c #397694",
"%  c #3E7890",
"&  c #37709B",
"*  c #337A9C",
"=  c #1977AB",
"-  c #1A72A7",
";  c #0F78BA",
":  c #1074B2",
">  c #177BB7",
",  c #167BBF",
"<  c #1B7CBB",
"1  c #2778A5",
"2  c #2576A1",
"3  c #347EA1",
"4  c #2A7CB4",
"5  c #42768C",
"6  c #147EC1",
"7  c #187FC1",
"8  c #2F82AC",
"9  c #3D85AC",
"0  c #2C87BB",
"q  c #398BB5",
"w  c #3C85BB",
"e  c #368CBD",
"r  c #44879C",
"t  c #548396",
"y  c #5D8898",
"u  c #67888D",
"i  c #66849C",
"p  c #7D8F9B",
"a  c #7F989C",
"s  c #4C82A4",
"d  c #4389AD",
"f  c #5590A0",
"g  c #5892AA",
"h  c #4E94B6",
"j  c #4691BA",
"k  c #4D96BC",
"l  c #5290B5",
"z  c #5096B8",
"x  c #539ABD",
"c  c #5A9DBB",
"v  c #6388A3",
"b  c #6195A2",
"n  c #7697A6",
"m  c #7E95A3",
"M  c #7098A2",
"N  c #6099B4",
"B  c #719DBA",
"V  c #6CA3B8",
"C  c #1E85C5",
"Z  c #248BCD",
"A  c #2A8BCC",
"S  c #2385C2",
"D  c #358EC1",
"F  c #3087CA",
"G  c #2E90CD",
"H  c #3A93C4",
"J  c #3792CB",
"K  c #2B8ED2",
"L  c #248BD0",
"P  c #3A8DD1",
"I  c #2C90D2",
"U  c #3496D2",
"Y  c #3B93D4",
"T  c #3A99D5",
"R  c #3197D9",
"E  c #438BC6",
"W  c #4097CC",
"Q  c #489BC8",
"!  c #599FC3",
"~  c #529CC1",
"^  c #4093D7",
"/  c #4F95D1",
"(  c #4C9ED0",
")  c #4DA4CF",
"_  c #52A0C4",
"`  c #45A0D7",
"'  c #47A6DE",
"]  c #51A9D7",
"[  c #53ABDD",
"{  c #67A2C2",
"}  c #6EB1CE",
"|  c #7BB1CD",
" . c #66ABD4",
".. c #6DB6DD",
"X. c #78B8DE",
"o. c #80A0AB",
"O. c #8BA3AD",
"+. c #88ADB5",
"@. c #9EB7BC",
"#. c #9FBBBD",
"$. c #A0AFB2",
"%. c #A1B6B7",
"&. c #A1BBBC",
"*. c #8DB9C6",
"=. c #99B4C7",
"-. c #9EB6C9",
";. c #8DBFD6",
":. c #87BBD3",
">. c #A2BAC4",
",. c #B1BAC3",
"<. c #8EC1D6",
"1. c #93C3D6",
"2. c #93C5DB",
"3. c #9ACADE",
"4. c #9BC6D6",
"5. c #ABC2C4",
"6. c #A1C3CF",
"7. c #AECACE",
"8. c #B4C6CA",
"9. c #B6C9CE",
"0. c #B9CBCF",
"q. c #BAC3CA",
"w. c #AAC8D0",
"e. c #A2C9D8",
"r. c #B4CBD3",
"t. c #BBCBD3",
"y. c #B3C5D1",
"u. c #AFD3DF",
"i. c #BCD1D5",
"p. c #BCD3D9",
"a. c #BDD8DF",
"s. c #9BC7E0",
"d. c #95CBE3",
"f. c #99CCE3",
"g. c #95CDEB",
"h. c #9CDCFF",
"j. c #95DAF9",
"k. c #A6CCE2",
"l. c #A8D6ED",
"z. c #BAD6E1",
"x. c #ACE8FF",
"c. c #ABE1FD",
"v. c #B9E6FF",
"b. c #BBEBFF",
"n. c #BDF5FF",
"m. c #C3D5D7",
"M. c #C5D2DB",
"N. c #CAD6DB",
"B. c #CCDBDD",
"V. c #C3D7E0",
"C. c #CBDDE2",
"Z. c #C3DBE5",
"A. c #D1DAE3",
"S. c #CBE2E6",
"D. c #C7E5ED",
"F. c #CAE2EC",
"G. c #D4E4E6",
"H. c #D5E5EE",
"J. c #DBE4EE",
"K. c #D5EBED",
"L. c #DDE8EC",
"P. c #C9EDF9",
"I. c #DBEDF2",
"U. c #D4ECF0",
"Y. c #CCF3FF",
"T. c #C5F8FF",
"R. c #DEF1F3",
"E. c #D5F5FF",
"W. c #DBF2FC",
"Q. c #D4FCFF",
"!. c #DCFDFF",
"~. c #E5EDF8",
"^. c #E3F3F5",
"/. c #EAF4F6",
"(. c #EFFBF7",
"). c #E4F4FB",
"_. c #ECF5FB",
"`. c #E3FEFF",
"'. c #ECFDFE",
"]. c #F5FDF5",
"[. c #FBFEF6",
"{. c #F2F7FD",
"}. c #F4FDFE",
"|. c #FCFEFE",
/* pixels */
"|.|.[.[.[.[.[.[.|.|.{.|.{.|.|.|.|.[.|.|.|.|.|.|.",
"|.|.|.|.[.|.[.|.|.|.}.}.|./.{.|.|.|.[.|.|.|.|.|.",
"|.|.|.|.|.|.|.{.{.{.).C.K.'.}.}.|.|.|.|.|.|.|.[.",
"|.|.|.|.|.{.|.|._.H.F.p.5.S.)./.}.}.{.|.|.|.|.|.",
"|.|.|.|.{.'.{.~.H.C.p.7.7.#.5.K.{.}.{.|.}.|.|.|.",
"[.{.|.}.{._.I.A.8.t.r.#.#.#.%.%.,.A.~.~.|.}.|.|.",
"[.[.].(._.G.C.L.).G.I.K.K.B.m.B.N.,.M.'.].}.|.|.",
"[.]./.^.8.9.).B.B.5.C.9.t.0.N.0.H.).p I.}.}.{.|.",
"[.{.J.M.y.r.'.^.G.R.I.R.K.).I._.'.W.m O.8./.|.|.",
"{./.q.o.-.=.F.`.S.m.K.S.S.K.r.V.W.E.n n o.^.{.|.",
"|.^.-.v v k.Y.u.D.7.p.a.r.Z.F.z.Y.Y.t y u R.}.|.",
"'.`.k.B s s n.T.Q.Q.P.Y.E.E.!.Y.b.| + V p `.].|.",
"'.!.l.{  .j 3 j.x.b.Y.s.b.v.v.c.l d ..} b !./.|.",
"`.E.f._ ( [ ] 8 ..h.O O & x.X.# w ) Q _ f !.}.|.",
"`.Q.g.~ ( R T T 4 o w / E X - W J T ' ) r Q.'.|.",
"`.E.g.j J R Z , < F ^ P Y F < : A U U W r !.'.|.",
"`.Q.f.9 H C : , L L I K L I L 6 C C 0 9 % Q.`.}.",
"`.`.3.$ 2 = C C Z C A G A A G A > - 1 * 5 !.`.}.",
"'.!.*.@ * q e H 0 D H e H e e H e q d 5   `.}.}.",
"'.U.+.t g x x j k x x z c z h x h c c 5 . !.'.}.",
"}.^.p.w.4.4.<.2.d.:.<.f.1.1.2.2.<.3.4.6.>.'._.|.",
"|.}._.'.`.!.!.!.Q.E.E.!.!.!.`.!.!.!.`.`.'.|.}.|.",
"|.|.].}.}.}.'.'.'.}.'.'.'.}.}.'.'.'.}.'.}.{.|.|.",
"|.|.|.|.|.|.}.|.}.}.|.}.}.}.}.|.}.}.}.|.|.|.|.|."
};
