/* XPM */
static char *result[] = {
/* columns rows colors chars-per-pixel */
"21 19 52 1 ",
"  c #FFA900",
". c #FFAA00",
"X c #FFAB00",
"o c #FFAC00",
"O c #FFAD00",
"+ c #FFAE00",
"@ c #FFAF00",
"# c #FFB000",
"$ c #FFB100",
"% c #FFB200",
"& c #FFB300",
"* c #FFB400",
"= c #FFB401",
"- c #FFB503",
"; c #FFB505",
": c #FFB80D",
"> c #FFB80F",
", c #FFBD1E",
"< c #FFC53D",
"1 c #FFC742",
"2 c #FFC949",
"3 c #FFCA4B",
"4 c #FFCB4F",
"5 c #FFCC51",
"6 c #FFCD56",
"7 c #FFCE59",
"8 c #FFCF5C",
"9 c #FFD061",
"0 c #FFD163",
"q c #FFD269",
"w c #FFD36B",
"e c #FFD570",
"r c #FFD571",
"t c #FFD779",
"y c #FFDA82",
"u c #FFDC8A",
"i c #FFDE8F",
"p c #FFF4DA",
"a c #FFF5DC",
"s c #FFF5DF",
"d c #FFF7E5",
"f c #FFF8E7",
"g c #FFF8E8",
"h c #FFF8EA",
"j c #FFF9EB",
"k c #FFFAEF",
"l c FloralWhite",
"z c #FFFBF4",
"x c #FFFDF8",
"c c #FFFEFC",
"v c #FFFEFD",
"b c white",
/* pixels */
"ubbbbbbbbbbbbbbbbbbbi",
"@ebbbbbbbbbbbbbbbbbu ",
">.wbbbbbbbbbbbbbbby.&",
">&X0bbbbbbbbbbbbbt.&*",
">&*o8bbbbbbbbbbbrX&*=",
">&**o6bbbbbbbbbqX&**=",
">&***o4bbbbbbb9X****=",
":&****O2bbbbb7o*****&",
"-%*****O1bbb5o*****&#",
"gX%*****O<b3O*****&.a",
"bfo%*****#;@*****&.pb",
"bbjo%*****&*****%Xsbb",
"bbblO%*********%Xdbbb",
"bbbbz+%*******%ohbbbb",
"bbbbbx+%*****%Okbbbbb",
"bbbbbbc@$***%+zbbbbbb",
"bbbbbbbb#$*%+xbbbbbbb",
"bbbbbbbbb$@@vbbbbbbbb",
"bbbbbbbbbb,bbbbbbbbbb"
};
